<svg width="166" height="60" viewBox="0 0 166 60" fill="none" xmlns="http://www.w3.org/2000/svg">
<path d="M14.991 43.5507C8.62465 25.4917 28.1681 17.2247 36.508 22.9237C36.7365 23.0693 37.0073 23.1535 37.2976 23.1535C38.1153 23.1535 38.7782 22.4853 38.7782 21.661C38.7782 20.8553 38.0878 20.4911 37.3532 20.1695C21.4347 13.1989 4.03491 29.0737 13.856 47.5307L14.991 43.5507Z" fill="url(#paint0_linear_142_45)"/>
<path d="M41.7397 26.5364C41.7397 27.0357 42.1865 27.4817 42.3564 27.7487C52.0228 42.9331 36.7241 58.0904 22.986 51.8091L19.5314 53.0528C37.4386 63.7755 56.2625 43.0346 44.6668 26.2167C44.2355 25.5912 43.9291 25.044 43.2203 25.044C42.4026 25.044 41.7397 25.7122 41.7397 26.5364Z" fill="url(#paint1_linear_142_45)"/>
<path d="M41.5918 20.666V11.3629C41.5918 11.258 41.5984 11.1558 41.6111 11.0565C41.7163 10.2319 42.2382 9.61069 42.8395 9.31514C43.0919 9.19111 43.3582 9.12444 43.6137 9.12418C43.6142 9.12418 43.6147 9.12418 43.6152 9.12418H57.5818C59.1609 9.12418 60 10.1689 60 11.3629V20.666C60 21.9073 58.7661 22.7057 57.5818 22.7057H53.3869L47.514 26.8349V22.7057H43.6152C43.1197 22.7057 42.6354 22.5011 42.265 22.1624C42.2365 22.1943 42.2085 22.2272 42.1839 22.258C40.7909 24.0059 39.3154 26.9337 41.3702 31.118C41.4107 31.1149 41.4517 31.1134 41.493 31.1134C42.3924 31.1134 43.1216 31.8484 43.1216 32.7551C43.1216 33.6618 42.3924 34.3968 41.493 34.3968C41.1483 34.3968 40.8287 34.2889 40.5655 34.1047C39.8795 34.5726 39.5674 34.9473 39.0467 35.6201C39.1887 35.8228 39.2721 36.0701 39.2721 36.3371C39.2721 37.0239 38.7197 37.5808 38.0383 37.5808C37.357 37.5808 36.8045 37.0239 36.8045 36.3371C36.8045 36.2869 36.8075 36.2374 36.8132 36.1888L35.2013 35.5222C34.88 35.9848 34.3475 36.2873 33.7447 36.2873C32.7635 36.2873 31.9681 35.4855 31.9681 34.4963C31.9681 33.5072 32.7635 32.7054 33.7447 32.7054C33.9737 32.7054 34.1924 32.749 34.3933 32.8285C35.0169 32.2199 35.7106 30.3362 35.4748 28.4982C34.6026 28.9808 33.6178 29.3467 32.4575 29.5407C32.3971 30.4194 31.6707 31.1134 30.7836 31.1134C29.8569 31.1134 29.1057 30.3561 29.1057 29.4219C29.1057 29.3961 29.1062 29.3704 29.1074 29.3449C27.5231 28.9537 26.0005 28.0621 24.229 26.2002C17.9312 29.4035 15.8578 37.6232 19.7286 43.3517L17.2119 49.5704L23.825 47.3316C33.9804 52.6217 40.6434 43.6368 41.3648 39.6547C40.7663 39.3389 40.3579 38.7069 40.3579 37.9788C40.3579 36.9347 41.1975 36.0883 42.2332 36.0883C43.269 36.0883 44.1086 36.9347 44.1086 37.9788C44.1086 38.7166 43.6893 39.3557 43.0778 39.6671C40.8773 49.27 31.866 52.7823 24.0718 49.5704L13.2637 53.3016L17.5081 43.3517C11.8213 30.368 23.0315 22.9333 28.2285 23.2811C28.5403 22.6734 29.1698 22.258 29.8953 22.258C30.931 22.258 31.7707 23.1044 31.7707 24.1485C31.7707 25.1926 30.931 26.0389 29.8953 26.0389C29.1541 26.0389 28.5134 25.6056 28.2089 24.9765C27.1894 25.1142 26.2361 25.361 25.353 25.7003C26.7695 27.2829 27.8197 27.7968 29.5596 28.2649C29.8657 27.936 30.3009 27.7304 30.7836 27.7304C31.3174 27.7304 31.793 27.9817 32.1003 28.3733C33.2324 28.3349 34.2817 28.014 35.2501 27.5139C35.0961 27.0609 34.8701 26.6262 34.5555 26.2319C34.516 26.2359 34.476 26.2379 34.4357 26.2379C33.7816 26.2379 33.2512 25.7034 33.2512 25.044C33.2512 24.3845 33.7816 23.85 34.4357 23.85C35.0898 23.85 35.6201 24.3845 35.6201 25.044C35.6201 25.2228 35.5811 25.3925 35.5112 25.5448C35.7895 26.0351 36.0025 26.5139 36.1596 26.9791C38.3452 25.5368 40.0732 23.2642 41.3677 21.5619L41.4436 21.462C41.4748 21.4211 41.5112 21.3723 41.55 21.3198L41.6322 21.2086L41.6562 21.176L41.6573 21.1744L41.6582 21.1732C41.615 21.0116 41.5918 20.8417 41.5918 20.666ZM40.0458 32.0014C38.9676 31.3335 37.4955 31.0636 37.4955 31.0636V29.8199L39.9632 30.8646C39.3378 29.5068 38.8999 27.3927 39.2897 25.2594C38.3879 26.2286 37.4776 27.1575 36.4066 27.9127C36.8472 30.2132 35.974 32.1142 35.0939 33.331C35.3603 33.6443 35.5214 34.0513 35.5214 34.4963C35.5214 34.5519 35.5189 34.6069 35.514 34.6612L37.1851 35.4387C37.4067 35.2248 37.7072 35.0933 38.0383 35.0933C38.1834 35.0933 38.3226 35.1185 38.4519 35.1649C38.9041 34.3375 39.3298 33.9512 40.0397 33.4969C39.9276 33.2741 39.8644 33.022 39.8644 32.7551C39.8644 32.4834 39.9298 32.2271 40.0458 32.0014Z" fill="url(#paint2_linear_142_45)"/>
<path fill-rule="evenodd" clip-rule="evenodd" d="M41.6111 11.0565C41.7859 10.2449 42.2733 9.61451 42.8395 9.31514C42.2382 9.61069 41.7163 10.2319 41.6111 11.0565ZM43.6137 9.12418H52.9918L43.6152 9.12418L43.6137 9.12418Z" fill="url(#paint3_linear_142_45)"/>
<path d="M43.6152 9.12418L52.9918 9.12418V6.38797C52.9918 4.84574 51.8074 4 50.6229 4H37.7421C36.3109 4 35.1758 4.64674 35.1758 6.38797C35.1757 9.4965 35.1757 11.2393 35.1758 14.3479C35.1758 15.7408 36.0149 16.7358 37.2979 16.7358H38.6304V19.671L41.5422 17.0841V11.7111C41.5422 11.4828 41.5664 11.2637 41.6111 11.0565C41.7163 10.2319 42.2382 9.61069 42.8395 9.31514C43.0736 9.19137 43.3212 9.12418 43.5657 9.12418H43.6137L43.6152 9.12418Z" fill="#049595"/>
<path d="M37.1007 40.0682C34.7706 45.4844 26.5683 47.2017 22.381 41.2357C22.1552 40.914 21.8016 40.516 21.8016 40.2672C21.8016 39.6628 22.2877 39.1728 22.8873 39.1728C23.3797 39.1728 23.6144 39.5708 23.9285 39.9559C27.6152 44.4765 33.1032 43.2522 35.324 39.1728C35.3755 39.0956 35.4267 39.0029 35.481 38.9046L35.482 38.9027L35.4828 38.9012C35.6879 38.5294 35.9367 38.0783 36.4097 38.0783C37.0094 38.0783 37.3968 38.644 37.3968 39.0733C37.3968 39.322 37.229 39.7698 37.1007 40.0682Z" fill="#FFCC00"/>
<path d="M27.4277 34.0983C27.4277 35.3622 26.4113 36.3868 25.1575 36.3868C23.9037 36.3868 22.8873 35.3622 22.8873 34.0983C22.8873 32.8344 23.9037 31.8099 25.1575 31.8099C26.4113 31.8099 27.4277 32.8344 27.4277 34.0983Z" fill="#FFCC00"/>
<path d="M50.6724 20.9645C50.056 20.9645 49.5373 20.5426 49.3851 19.9695H45.984V19.9649C46.1711 19.6812 46.2801 19.3407 46.2801 18.9745H49.5043C49.731 18.5594 50.1691 18.2781 50.6724 18.2781C51.4084 18.2781 52.0049 18.8794 52.0049 19.6213C52.0049 20.3631 51.4084 20.9645 50.6724 20.9645Z" fill="url(#paint4_linear_142_45)"/>
<path d="M51.6101 13.2036C51.6101 14.0828 50.9031 14.7956 50.0309 14.7956C49.7561 14.7956 49.4975 14.7248 49.2725 14.6004L45.9563 17.9433C45.7659 17.6713 45.5024 17.4552 45.1944 17.324L45.1944 17.3042L48.5977 13.8734C48.504 13.6698 48.4516 13.4429 48.4516 13.2036C48.4516 12.3244 49.1586 11.6116 50.0309 11.6116C50.9031 11.6116 51.6101 12.3244 51.6101 13.2036Z" fill="url(#paint5_linear_142_45)"/>
<path d="M46.0827 12.4574C46.0827 13.0422 45.7119 13.5398 45.1944 13.7242L45.1944 17.3042L45.1805 17.3182C44.9719 17.2314 44.7432 17.1836 44.5034 17.1836C44.4025 17.1836 44.3036 17.192 44.2073 17.2083V13.6845C43.7419 13.4749 43.4177 13.0043 43.4177 12.4574C43.4177 11.7155 44.0143 11.1142 44.7502 11.1142C45.4861 11.1142 46.0827 11.7155 46.0827 12.4574Z" fill="url(#paint6_linear_142_45)"/>
<path d="M46.2801 18.9745C46.2801 19.3407 46.1711 19.6812 45.984 19.9649C45.6657 20.4475 45.1214 20.7655 44.5034 20.7655C43.5222 20.7655 42.7268 19.9637 42.7268 18.9745C42.7268 18.0871 43.367 17.3504 44.2073 17.2083C44.3036 17.192 44.4025 17.1836 44.5034 17.1836C44.7432 17.1836 44.9719 17.2314 45.1805 17.3182C45.1851 17.3201 45.1898 17.3221 45.1944 17.324C45.5024 17.4552 45.7659 17.6713 45.9563 17.9433C46.1603 18.2349 46.2801 18.5906 46.2801 18.9745Z" fill="#049595"/>
<path d="M55 43V32.3333H57.282V36.7344H61.9147V32.3333H64.1914V43H61.9147V38.5937H57.282V43H55Z" fill="#005580"/>
<path d="M69.5265 43.151C69.01 43.151 68.5497 43.0625 68.1456 42.8854C67.7416 42.7049 67.4219 42.4392 67.1864 42.0885C66.9545 41.7344 66.8386 41.2934 66.8386 40.7656C66.8386 40.3212 66.9212 39.9479 67.0863 39.6458C67.2514 39.3437 67.4763 39.1007 67.7609 38.9167C68.0455 38.7326 68.3687 38.5937 68.7306 38.5C69.0961 38.4062 69.479 38.3403 69.8796 38.3021C70.3504 38.2535 70.7299 38.2083 71.018 38.1667C71.3061 38.1215 71.5151 38.0556 71.6451 37.9687C71.7751 37.8819 71.8401 37.7535 71.8401 37.5833V37.5521C71.8401 37.2222 71.7347 36.967 71.5239 36.7865C71.3166 36.6059 71.0215 36.5156 70.6385 36.5156C70.2344 36.5156 69.913 36.6042 69.674 36.7812C69.4351 36.9549 69.277 37.1736 69.1997 37.4375L67.1232 37.2708C67.2286 36.7847 67.4359 36.3646 67.7451 36.0104C68.0543 35.6528 68.4531 35.3785 68.9415 35.1875C69.4334 34.9931 70.0025 34.8958 70.649 34.8958C71.0988 34.8958 71.5292 34.9479 71.9403 35.0521C72.3549 35.1562 72.722 35.3177 73.0418 35.5365C73.365 35.7552 73.6197 36.0365 73.806 36.3802C73.9922 36.7205 74.0853 37.1285 74.0853 37.6042V43H71.9561V41.8906H71.8928C71.7628 42.1406 71.5889 42.3611 71.3711 42.5521C71.1532 42.7396 70.8915 42.8872 70.5858 42.9948C70.2801 43.099 69.927 43.151 69.5265 43.151ZM70.1694 41.6198C70.4997 41.6198 70.7913 41.5556 71.0443 41.4271C71.2973 41.2951 71.4958 41.1181 71.6399 40.8958C71.7839 40.6736 71.8559 40.4219 71.8559 40.1406V39.2917C71.7857 39.3368 71.689 39.3785 71.5661 39.4167C71.4466 39.4514 71.3113 39.4844 71.1603 39.5156C71.0092 39.5434 70.8581 39.5694 70.707 39.5937C70.5559 39.6146 70.4189 39.6337 70.2959 39.651C70.0324 39.6892 69.8023 39.75 69.6055 39.8333C69.4088 39.9167 69.2559 40.0295 69.147 40.1719C69.0381 40.3108 68.9836 40.4844 68.9836 40.6927C68.9836 40.9948 69.0943 41.2257 69.3156 41.3854C69.5405 41.5417 69.8251 41.6198 70.1694 41.6198Z" fill="#005580"/>
<path d="M77.0144 46V35H79.228V36.3437H79.3281C79.4265 36.1285 79.5688 35.9097 79.755 35.6875C79.9447 35.4618 80.1907 35.2743 80.4928 35.125C80.7985 34.9722 81.178 34.8958 81.6312 34.8958C82.2215 34.8958 82.7661 35.0486 83.265 35.3542C83.7639 35.6562 84.1627 36.1128 84.4614 36.724C84.76 37.3316 84.9094 38.0937 84.9094 39.0104C84.9094 39.9028 84.7635 40.6562 84.4719 41.2708C84.1838 41.8819 83.7903 42.3455 83.2914 42.6615C82.796 42.974 82.2408 43.1302 81.6259 43.1302C81.1903 43.1302 80.8196 43.059 80.5139 42.9167C80.2117 42.7743 79.964 42.5955 79.7708 42.3802C79.5775 42.1615 79.43 41.941 79.3281 41.7188H79.2596V46H77.0144ZM79.2121 39C79.2121 39.4757 79.2789 39.8906 79.4124 40.2448C79.5459 40.599 79.7392 40.875 79.9921 41.0729C80.2451 41.2674 80.5526 41.3646 80.9145 41.3646C81.2799 41.3646 81.5891 41.2656 81.842 41.0677C82.095 40.8663 82.2865 40.5885 82.4165 40.2344C82.55 39.8767 82.6168 39.4653 82.6168 39C82.6168 38.5382 82.5518 38.1319 82.4218 37.7812C82.2918 37.4306 82.1003 37.1562 81.8473 36.9583C81.5943 36.7604 81.2834 36.6615 80.9145 36.6615C80.549 36.6615 80.2399 36.7569 79.9869 36.9479C79.7374 37.1389 79.5459 37.4097 79.4124 37.7604C79.2789 38.1111 79.2121 38.5243 79.2121 39Z" fill="#005580"/>
<path d="M87.5934 46V35H89.8069V36.3437H89.9071C90.0055 36.1285 90.1478 35.9097 90.334 35.6875C90.5237 35.4618 90.7697 35.2743 91.0718 35.125C91.3775 34.9722 91.757 34.8958 92.2102 34.8958C92.8005 34.8958 93.3451 35.0486 93.844 35.3542C94.3429 35.6562 94.7417 36.1128 95.0404 36.724C95.339 37.3316 95.4883 38.0937 95.4883 39.0104C95.4883 39.9028 95.3425 40.6562 95.0509 41.2708C94.7628 41.8819 94.3693 42.3455 93.8704 42.6615C93.375 42.974 92.8198 43.1302 92.2049 43.1302C91.7693 43.1302 91.3986 43.059 91.0929 42.9167C90.7907 42.7743 90.543 42.5955 90.3498 42.3802C90.1565 42.1615 90.009 41.941 89.9071 41.7188H89.8386V46H87.5934ZM89.7911 39C89.7911 39.4757 89.8579 39.8906 89.9914 40.2448C90.1249 40.599 90.3182 40.875 90.5711 41.0729C90.8241 41.2674 91.1316 41.3646 91.4935 41.3646C91.8589 41.3646 92.1681 41.2656 92.421 41.0677C92.674 40.8663 92.8655 40.5885 92.9955 40.2344C93.129 39.8767 93.1958 39.4653 93.1958 39C93.1958 38.5382 93.1308 38.1319 93.0008 37.7812C92.8708 37.4306 92.6793 37.1562 92.4263 36.9583C92.1733 36.7604 91.8624 36.6615 91.4935 36.6615C91.128 36.6615 90.8189 36.7569 90.5659 36.9479C90.3164 37.1389 90.1249 37.4097 89.9914 37.7604C89.8579 38.1111 89.7911 38.5243 89.7911 39Z" fill="#005580"/>
<path d="M99.2976 46C99.013 46 98.746 45.9774 98.4965 45.9323C98.2506 45.8906 98.0468 45.8368 97.8852 45.7708L98.3911 44.1146C98.6546 44.1944 98.8918 44.2378 99.1026 44.2448C99.3169 44.2517 99.5014 44.2031 99.656 44.099C99.8141 43.9948 99.9424 43.8177 100.041 43.5677L100.172 43.2292L97.2686 35H99.6297L101.306 40.875H101.39L103.082 35H105.459L102.312 43.8646C102.161 44.2951 101.956 44.6701 101.696 44.9896C101.439 45.3125 101.114 45.5608 100.721 45.7344C100.327 45.9115 99.8528 46 99.2976 46Z" fill="#005580"/>
<path d="M112.162 43H110.792L114.755 32.3333H116.104L120.067 43H118.697L115.472 34.0208H115.387L112.162 43ZM112.668 38.8333H118.191V39.9792H112.668V38.8333Z" fill="#049595"/>
<path d="M127.908 36.7917L126.79 37.1042C126.72 36.9201 126.616 36.7413 126.479 36.5677C126.346 36.3906 126.163 36.2448 125.931 36.1302C125.699 36.0156 125.402 35.9583 125.041 35.9583C124.545 35.9583 124.132 36.0712 123.802 36.2969C123.475 36.5191 123.312 36.8021 123.312 37.1458C123.312 37.4514 123.424 37.6927 123.649 37.8698C123.874 38.0469 124.225 38.1944 124.703 38.3125L125.905 38.6042C126.629 38.7778 127.168 39.0434 127.523 39.401C127.878 39.7552 128.055 40.2118 128.055 40.7708C128.055 41.2292 127.922 41.6389 127.655 42C127.391 42.3611 127.022 42.6458 126.548 42.8542C126.074 43.0625 125.522 43.1667 124.893 43.1667C124.067 43.1667 123.384 42.9896 122.843 42.6354C122.302 42.2812 121.959 41.7639 121.815 41.0833L122.996 40.7917C123.108 41.2222 123.321 41.5451 123.633 41.7604C123.95 41.9757 124.362 42.0833 124.872 42.0833C125.452 42.0833 125.912 41.9618 126.253 41.7188C126.597 41.4722 126.769 41.1771 126.769 40.8333C126.769 40.5556 126.671 40.3229 126.474 40.1354C126.277 39.9444 125.975 39.8021 125.568 39.7083L124.218 39.3958C123.477 39.2222 122.932 38.9531 122.585 38.5885C122.24 38.2205 122.068 37.7604 122.068 37.2083C122.068 36.7569 122.196 36.3576 122.453 36.0104C122.713 35.6632 123.066 35.3906 123.512 35.1927C123.962 34.9948 124.471 34.8958 125.041 34.8958C125.842 34.8958 126.471 35.0694 126.927 35.4167C127.388 35.7639 127.714 36.2222 127.908 36.7917Z" fill="#049595"/>
<path d="M136.255 36.7917L135.138 37.1042C135.068 36.9201 134.964 36.7413 134.827 36.5677C134.693 36.3906 134.511 36.2448 134.279 36.1302C134.047 36.0156 133.75 35.9583 133.388 35.9583C132.893 35.9583 132.48 36.0712 132.15 36.2969C131.823 36.5191 131.66 36.8021 131.66 37.1458C131.66 37.4514 131.772 37.6927 131.997 37.8698C132.222 38.0469 132.573 38.1944 133.051 38.3125L134.253 38.6042C134.976 38.7778 135.516 39.0434 135.87 39.401C136.225 39.7552 136.403 40.2118 136.403 40.7708C136.403 41.2292 136.269 41.6389 136.002 42C135.739 42.3611 135.37 42.6458 134.895 42.8542C134.421 43.0625 133.87 43.1667 133.241 43.1667C132.415 43.1667 131.732 42.9896 131.19 42.6354C130.649 42.2812 130.307 41.7639 130.163 41.0833L131.343 40.7917C131.456 41.2222 131.668 41.5451 131.981 41.7604C132.297 41.9757 132.71 42.0833 133.22 42.0833C133.799 42.0833 134.26 41.9618 134.6 41.7188C134.945 41.4722 135.117 41.1771 135.117 40.8333C135.117 40.5556 135.018 40.3229 134.822 40.1354C134.625 39.9444 134.323 39.8021 133.915 39.7083L132.566 39.3958C131.825 39.2222 131.28 38.9531 130.932 38.5885C130.588 38.2205 130.416 37.7604 130.416 37.2083C130.416 36.7569 130.544 36.3576 130.8 36.0104C131.06 35.6632 131.414 35.3906 131.86 35.1927C132.31 34.9948 132.819 34.8958 133.388 34.8958C134.189 34.8958 134.818 35.0694 135.275 35.4167C135.735 35.7639 136.062 36.2222 136.255 36.7917Z" fill="#049595"/>
<path d="M138.869 43V35H140.113V43H138.869ZM139.501 33.6667C139.259 33.6667 139.05 33.5851 138.874 33.4219C138.702 33.2587 138.616 33.0625 138.616 32.8333C138.616 32.6042 138.702 32.408 138.874 32.2448C139.05 32.0816 139.259 32 139.501 32C139.744 32 139.951 32.0816 140.123 32.2448C140.299 32.408 140.387 32.6042 140.387 32.8333C140.387 33.0625 140.299 33.2587 140.123 33.4219C139.951 33.5851 139.744 33.6667 139.501 33.6667Z" fill="#049595"/>
<path d="M148.718 36.7917L147.601 37.1042C147.531 36.9201 147.427 36.7413 147.29 36.5677C147.157 36.3906 146.974 36.2448 146.742 36.1302C146.51 36.0156 146.213 35.9583 145.851 35.9583C145.356 35.9583 144.943 36.0712 144.613 36.2969C144.286 36.5191 144.123 36.8021 144.123 37.1458C144.123 37.4514 144.235 37.6927 144.46 37.8698C144.685 38.0469 145.036 38.1944 145.514 38.3125L146.716 38.6042C147.439 38.7778 147.979 39.0434 148.334 39.401C148.688 39.7552 148.866 40.2118 148.866 40.7708C148.866 41.2292 148.732 41.6389 148.465 42C148.202 42.3611 147.833 42.6458 147.359 42.8542C146.884 43.0625 146.333 43.1667 145.704 43.1667C144.878 43.1667 144.195 42.9896 143.654 42.6354C143.113 42.2812 142.77 41.7639 142.626 41.0833L143.806 40.7917C143.919 41.2222 144.131 41.5451 144.444 41.7604C144.76 41.9757 145.173 42.0833 145.683 42.0833C146.262 42.0833 146.723 41.9618 147.063 41.7188C147.408 41.4722 147.58 41.1771 147.58 40.8333C147.58 40.5556 147.482 40.3229 147.285 40.1354C147.088 39.9444 146.786 39.8021 146.378 39.7083L145.029 39.3958C144.288 39.2222 143.743 38.9531 143.395 38.5885C143.051 38.2205 142.879 37.7604 142.879 37.2083C142.879 36.7569 143.007 36.3576 143.264 36.0104C143.524 35.6632 143.877 35.3906 144.323 35.1927C144.773 34.9948 145.282 34.8958 145.851 34.8958C146.652 34.8958 147.281 35.0694 147.738 35.4167C148.198 35.7639 148.525 36.2222 148.718 36.7917Z" fill="#049595"/>
<path d="M154.852 35V36.0417H150.657V35H154.852ZM151.88 33.0833H153.124V40.7083C153.124 41.0556 153.175 41.316 153.277 41.4896C153.382 41.6597 153.516 41.7743 153.677 41.8333C153.842 41.8889 154.016 41.9167 154.199 41.9167C154.336 41.9167 154.448 41.9097 154.536 41.8958C154.624 41.8785 154.694 41.8646 154.747 41.8542L155 42.9583C154.916 42.9896 154.798 43.0208 154.647 43.0521C154.496 43.0868 154.304 43.1042 154.072 43.1042C153.721 43.1042 153.377 43.0295 153.039 42.8802C152.706 42.7309 152.428 42.5035 152.207 42.1979C151.989 41.8924 151.88 41.5069 151.88 41.0417V33.0833Z" fill="#049595"/>
<defs>
<linearGradient id="paint0_linear_142_45" x1="59.957" y1="4" x2="10.5863" y2="55.6423" gradientUnits="userSpaceOnUse">
<stop stop-color="#004466"/>
<stop offset="1" stop-color="#00B3B3"/>
</linearGradient>
<linearGradient id="paint1_linear_142_45" x1="59.957" y1="4" x2="10.5863" y2="55.6423" gradientUnits="userSpaceOnUse">
<stop stop-color="#004466"/>
<stop offset="1" stop-color="#00B3B3"/>
</linearGradient>
<linearGradient id="paint2_linear_142_45" x1="59.957" y1="4" x2="10.5863" y2="55.6423" gradientUnits="userSpaceOnUse">
<stop stop-color="#004466"/>
<stop offset="1" stop-color="#00B3B3"/>
</linearGradient>
<linearGradient id="paint3_linear_142_45" x1="59.957" y1="4" x2="10.5863" y2="55.6423" gradientUnits="userSpaceOnUse">
<stop stop-color="#004466"/>
<stop offset="1" stop-color="#00B3B3"/>
</linearGradient>
<linearGradient id="paint4_linear_142_45" x1="50.0308" y1="19.472" x2="45.984" y2="19.472" gradientUnits="userSpaceOnUse">
<stop stop-color="#00B3B3"/>
<stop offset="1" stop-color="#004466"/>
</linearGradient>
<linearGradient id="paint5_linear_142_45" x1="49.6702" y1="13.4676" x2="44.9073" y2="18.3724" gradientUnits="userSpaceOnUse">
<stop stop-color="#00B3B3"/>
<stop offset="1" stop-color="#004466"/>
</linearGradient>
<linearGradient id="paint6_linear_142_45" x1="44.7008" y1="13.5021" x2="44.7008" y2="17.5816" gradientUnits="userSpaceOnUse">
<stop stop-color="#00B2B2"/>
<stop offset="1" stop-color="#004466"/>
</linearGradient>
</defs>
</svg>
