<svg width="350" height="97" viewBox="0 0 350 97" fill="none" xmlns="http://www.w3.org/2000/svg">
<path d="M7.47828 73.7773C-4.45085 40.0903 32.1691 24.6692 47.7961 35.3C48.2243 35.5715 48.7316 35.7286 49.2757 35.7286C50.8078 35.7286 52.0499 34.4822 52.0499 32.9446C52.0499 31.4416 50.7563 30.7623 49.3797 30.1624C19.5522 17.1594 -13.051 46.772 5.35146 81.2014L7.47828 73.7773Z" fill="url(#paint0_linear_162_1505)"/>
<path d="M57.5991 42.0391C57.5991 42.9705 58.4361 43.8024 58.7547 44.3005C76.8673 72.6253 48.2009 100.899 22.459 89.1823L15.9859 91.5024C49.5398 111.504 84.8113 72.8145 63.0838 41.4428C62.2756 40.2759 61.7015 39.2551 60.3733 39.2551C58.8412 39.2551 57.5991 40.5015 57.5991 42.0391Z" fill="url(#paint1_linear_162_1505)"/>
<path d="M57.3219 31.0885V13.7346C57.3219 13.5389 57.3343 13.3483 57.358 13.1631C57.5552 11.625 58.533 10.4661 59.6598 9.91478C60.1327 9.68342 60.6318 9.55905 61.1105 9.55857L61.1133 9.55857H87.2834C90.2424 9.55857 91.8146 11.5074 91.8146 13.7346V31.0885C91.8146 33.404 89.5026 34.8934 87.2834 34.8934H79.4231L68.4187 42.5959V34.8934H61.1133C60.1848 34.8934 59.2774 34.5116 58.5833 33.8798C58.53 33.9395 58.4774 34.0007 58.4314 34.0582C55.8211 37.3186 53.0565 42.7802 56.9066 50.5854C56.9825 50.5798 57.0594 50.5769 57.1367 50.5769C58.822 50.5769 60.1884 51.948 60.1884 53.6393C60.1884 55.3307 58.822 56.7018 57.1367 56.7018C56.4909 56.7018 55.8921 56.5005 55.3989 56.1569C54.1134 57.0297 53.5286 57.7286 52.553 58.9837C52.819 59.3617 52.9754 59.823 52.9754 60.321C52.9754 61.6024 51.9403 62.6411 50.6636 62.6411C49.3868 62.6411 48.3517 61.6024 48.3517 60.321C48.3517 60.2275 48.3573 60.1352 48.368 60.0446L45.3476 58.801C44.7456 59.664 43.7477 60.2282 42.6183 60.2282C40.7797 60.2282 39.2893 58.7325 39.2893 56.8874C39.2893 55.0423 40.7797 53.5465 42.6183 53.5465C43.0473 53.5465 43.4571 53.6279 43.8337 53.7762C45.0021 52.6409 46.3019 49.1272 45.8602 45.6986C44.2258 46.5989 42.3805 47.2813 40.2064 47.6432C40.0932 49.2824 38.7321 50.5769 37.0699 50.5769C35.3335 50.5769 33.9258 49.1642 33.9258 47.4216C33.9258 47.3735 33.9269 47.3256 33.9291 47.278C30.9605 46.5482 28.1075 44.885 24.788 41.412C12.9875 47.3874 9.10235 62.7201 16.3554 73.406L11.6396 85.0063L24.0311 80.8302C43.0599 90.6981 55.5448 73.938 56.8965 66.5098C55.7751 65.9207 55.0098 64.7418 55.0098 63.3835C55.0098 61.4359 56.5832 59.857 58.5238 59.857C60.4645 59.857 62.0378 61.4359 62.0378 63.3835C62.0378 64.7598 61.2522 65.952 60.1064 66.5329C55.9832 84.446 39.098 90.9978 24.4935 85.0063L4.2417 91.9664L12.1946 73.406C1.539 49.1865 22.5443 35.318 32.2822 35.9667C32.8665 34.833 34.0459 34.0582 35.4054 34.0582C37.3461 34.0582 38.9194 35.637 38.9194 37.5846C38.9194 39.5323 37.3461 41.1111 35.4054 41.1111C34.0166 41.1111 32.8161 40.3027 32.2456 39.1292C30.3352 39.386 28.549 39.8465 26.8942 40.4795C29.5483 43.4316 31.5162 44.3901 34.7763 45.2635C35.3499 44.6498 36.1654 44.2664 37.0699 44.2664C38.0701 44.2664 38.9613 44.735 39.5371 45.4655C41.6584 45.3939 43.6245 44.7954 45.439 43.8625C45.1505 43.0174 44.727 42.2066 44.1375 41.4711C44.0636 41.4785 43.9887 41.4823 43.913 41.4823C42.6873 41.4823 41.6936 40.4852 41.6936 39.2551C41.6936 38.025 42.6873 37.0278 43.913 37.0278C45.1386 37.0278 46.1323 38.025 46.1323 39.2551C46.1323 39.5887 46.0592 39.9052 45.9282 40.1893C46.4497 41.1039 46.8488 41.997 47.1432 42.8648C51.2385 40.1745 54.4765 35.9351 56.9019 32.7596L57.0443 32.5734C57.1026 32.497 57.1709 32.406 57.2437 32.3081L57.3975 32.1007L57.4425 32.0398L57.4447 32.0369L57.4463 32.0347C57.3654 31.7331 57.3219 31.4163 57.3219 31.0885ZM54.425 52.2333C52.4049 50.9874 49.6464 50.4841 49.6464 50.4841V48.164L54.2702 50.1129C53.0984 47.58 52.2779 43.6363 53.0083 39.657C51.3185 41.4648 49.6129 43.1977 47.606 44.6064C48.4315 48.8977 46.7956 52.4439 45.1464 54.7137C45.6456 55.298 45.9474 56.0573 45.9474 56.8874C45.9474 56.9911 45.9427 57.0937 45.9335 57.195L49.0648 58.6453C49.48 58.2462 50.0432 58.001 50.6636 58.001C50.9354 58.001 51.1962 58.0481 51.4384 58.1345C52.2858 56.5911 53.0834 55.8705 54.4136 55.0231C54.2036 54.6075 54.0851 54.1373 54.0851 53.6393C54.0851 53.1325 54.2077 52.6544 54.425 52.2333Z" fill="url(#paint2_linear_162_1505)"/>
<path fill-rule="evenodd" clip-rule="evenodd" d="M57.358 13.1631C57.6856 11.6492 58.5989 10.4732 59.6598 9.91478C58.533 10.4661 57.5552 11.625 57.358 13.1631ZM61.1105 9.55857H78.6829L61.1133 9.55857L61.1105 9.55857Z" fill="url(#paint3_linear_162_1505)"/>
<path d="M61.1133 9.55857L78.6829 9.55857V4.45448C78.6829 1.57763 76.4636 -3.0861e-06 74.2441 1.21564e-06H50.1084C47.4268 3.16269e-06 45.2999 1.20642 45.2998 4.45448C45.2997 10.2531 45.2997 13.5041 45.2998 19.3027C45.2998 21.9012 46.8721 23.7572 49.2762 23.7572H51.773V29.2325L57.2289 24.4068V14.3842C57.2289 13.9583 57.2744 13.5497 57.358 13.1631C57.5552 11.625 58.533 10.4661 59.6598 9.91478C60.0985 9.68389 60.5624 9.55857 61.0206 9.55857H61.1105L61.1133 9.55857Z" fill="#049595"/>
<path d="M48.9066 67.2812C44.5406 77.3843 29.1713 80.5879 21.3253 69.4588C20.9023 68.8588 20.2397 68.1164 20.2397 67.6524C20.2397 66.5248 21.1505 65.6107 22.2741 65.6107C23.1967 65.6107 23.6365 66.3531 24.2251 67.0716C31.133 75.5043 41.4162 73.2205 45.5775 65.6107C45.6741 65.4668 45.7699 65.2939 45.8716 65.1104L45.8735 65.107L45.8752 65.1043C46.2593 64.4106 46.7257 63.5691 47.6119 63.5691C48.7355 63.5691 49.4614 64.6243 49.4614 65.4251C49.4614 65.8891 49.1471 66.7244 48.9066 67.2812Z" fill="#FFCC00"/>
<path d="M30.7817 56.145C30.7817 58.5026 28.8772 60.4138 26.5279 60.4138C24.1786 60.4138 22.2741 58.5026 22.2741 56.145C22.2741 53.7873 24.1786 51.8761 26.5279 51.8761C28.8772 51.8761 30.7817 53.7873 30.7817 56.145Z" fill="#FFCC00"/>
<path d="M74.3369 31.6453C73.1818 31.6453 72.21 30.8582 71.9248 29.7893H65.5518V29.7807C65.9024 29.2515 66.1067 28.6163 66.1067 27.9333H72.148C72.5728 27.1588 73.3937 26.6341 74.3369 26.6341C75.7159 26.6341 76.8337 27.7559 76.8337 29.1397C76.8337 30.5235 75.7159 31.6453 74.3369 31.6453Z" fill="url(#paint4_linear_162_1505)"/>
<path d="M76.0939 17.1683C76.0939 18.8084 74.7691 20.1379 73.1348 20.1379C72.6199 20.1379 72.1354 20.0059 71.7137 19.7738L65.4999 26.0097C65.1432 25.5023 64.6494 25.0991 64.0723 24.8545L64.0723 24.8174L70.4494 18.4177C70.2737 18.0379 70.1756 17.6146 70.1756 17.1683C70.1756 15.5282 71.5004 14.1986 73.1348 14.1986C74.7691 14.1986 76.0939 15.5282 76.0939 17.1683Z" fill="url(#paint5_linear_162_1505)"/>
<path d="M65.7368 15.7763C65.7368 16.8673 65.042 17.7954 64.0723 18.1393L64.0723 24.8174L64.0463 24.8435C63.6554 24.6817 63.2268 24.5924 62.7776 24.5924C62.5885 24.5924 62.4032 24.6082 62.2228 24.6386V18.0652C61.3508 17.6744 60.7432 16.7966 60.7432 15.7763C60.7432 14.3924 61.861 13.2706 63.24 13.2706C64.619 13.2706 65.7368 14.3924 65.7368 15.7763Z" fill="url(#paint6_linear_162_1505)"/>
<path d="M66.1067 27.9333C66.1067 28.6163 65.9024 29.2515 65.5518 29.7807C64.9554 30.6809 63.9356 31.2741 62.7776 31.2741C60.939 31.2741 59.4486 29.7784 59.4486 27.9333C59.4486 26.2779 60.6483 24.9037 62.2228 24.6386C62.4032 24.6082 62.5885 24.5924 62.7776 24.5924C63.2268 24.5924 63.6554 24.6817 64.0463 24.8435C64.055 24.8471 64.0637 24.8508 64.0723 24.8545C64.6494 25.0991 65.1432 25.5023 65.4999 26.0097C65.8822 26.5535 66.1067 27.2171 66.1067 27.9333Z" fill="#049595"/>
<path d="M84.9112 80.5199V51.4859H90.9607V63.4652H103.241V51.4859H109.277V80.5199H103.241V68.5264H90.9607V80.5199H84.9112Z" fill="#005580"/>
<path d="M123.419 80.931C122.05 80.931 120.83 80.69 119.759 80.208C118.688 79.7165 117.84 78.9935 117.216 78.039C116.601 77.0749 116.294 75.8746 116.294 74.4381C116.294 73.2283 116.513 72.2123 116.951 71.3901C117.388 70.5678 117.985 69.9062 118.739 69.4053C119.493 68.9044 120.35 68.5264 121.31 68.2712C122.278 68.016 123.294 67.8364 124.355 67.7325C125.603 67.6001 126.609 67.4773 127.373 67.3639C128.137 67.241 128.691 67.0614 129.036 66.8251C129.38 66.5889 129.553 66.2392 129.553 65.7761V65.691C129.553 64.7931 129.273 64.0985 128.714 63.607C128.165 63.1156 127.382 62.8698 126.367 62.8698C125.296 62.8698 124.444 63.1108 123.81 63.5928C123.177 64.0654 122.758 64.6608 122.553 65.3791L117.048 64.9255C117.328 63.6023 117.877 62.4587 118.697 61.4947C119.517 60.5212 120.574 59.7746 121.868 59.2547C123.172 58.7255 124.681 58.4609 126.395 58.4609C127.587 58.4609 128.728 58.6026 129.818 58.8862C130.917 59.1697 131.89 59.6092 132.738 60.2046C133.595 60.8 134.27 61.5656 134.764 62.5012C135.257 63.4274 135.504 64.538 135.504 65.8328V80.5199H129.86V77.5002H129.692C129.348 78.1807 128.887 78.7809 128.309 79.3007C127.732 79.8111 127.038 80.2127 126.227 80.5057C125.417 80.7893 124.481 80.931 123.419 80.931ZM125.124 76.7631C125.999 76.7631 126.772 76.5882 127.443 76.2385C128.114 75.8794 128.64 75.3974 129.022 74.7925C129.404 74.1876 129.594 73.5024 129.594 72.7369V70.426C129.408 70.5489 129.152 70.6623 128.826 70.7663C128.509 70.8608 128.151 70.9506 127.75 71.0356C127.35 71.1113 126.949 71.1821 126.549 71.2483C126.148 71.305 125.785 71.357 125.459 71.4042C124.76 71.5082 124.15 71.6736 123.629 71.9004C123.107 72.1273 122.702 72.4344 122.413 72.8219C122.125 73.2 121.98 73.6725 121.98 74.2396C121.98 75.0618 122.274 75.6903 122.86 76.1251C123.457 76.5504 124.211 76.7631 125.124 76.7631Z" fill="#005580"/>
<path d="M143.269 88.6857V58.7444H149.137V62.402H149.402C149.663 61.816 150.04 61.2206 150.534 60.6157C151.037 60.0014 151.689 59.491 152.49 59.0846C153.3 58.6688 154.306 58.4609 155.508 58.4609C157.072 58.4609 158.516 58.8767 159.839 59.7084C161.161 60.5307 162.218 61.7735 163.01 63.4369C163.802 65.0909 164.198 67.1654 164.198 69.6605C164.198 72.0894 163.811 74.1404 163.038 75.8132C162.274 77.4766 161.231 78.7383 159.908 79.5984C158.595 80.449 157.124 80.8743 155.494 80.8743C154.339 80.8743 153.356 80.6806 152.546 80.2931C151.745 79.9056 151.088 79.4188 150.576 78.8329C150.064 78.2374 149.672 77.6373 149.402 77.0324H149.221V88.6857H143.269ZM149.095 69.6321C149.095 70.927 149.272 72.0564 149.626 73.0204C149.98 73.9844 150.492 74.7358 151.163 75.2745C151.833 75.8038 152.648 76.0684 153.608 76.0684C154.576 76.0684 155.396 75.799 156.066 75.2603C156.737 74.7122 157.245 73.9561 157.589 72.992C157.943 72.0186 158.12 70.8986 158.12 69.6321C158.12 68.3751 157.948 67.2693 157.603 66.3148C157.259 65.3602 156.751 64.6136 156.08 64.0749C155.41 63.5361 154.586 63.2668 153.608 63.2668C152.639 63.2668 151.819 63.5267 151.149 64.0465C150.487 64.5663 149.98 65.3035 149.626 66.2581C149.272 67.2126 149.095 68.3373 149.095 69.6321Z" fill="#005580"/>
<path d="M171.313 88.6857V58.7444H177.181V62.402H177.446C177.707 61.816 178.084 61.2206 178.578 60.6157C179.081 60.0014 179.733 59.491 180.534 59.0846C181.344 58.6688 182.35 58.4609 183.551 58.4609C185.116 58.4609 186.56 58.8767 187.882 59.7084C189.205 60.5307 190.262 61.7735 191.054 63.4369C191.845 65.0909 192.241 67.1654 192.241 69.6605C192.241 72.0894 191.855 74.1404 191.082 75.8132C190.318 77.4766 189.275 78.7383 187.952 79.5984C186.639 80.449 185.167 80.8743 183.537 80.8743C182.382 80.8743 181.4 80.6806 180.589 80.2931C179.788 79.9056 179.132 79.4188 178.62 78.8329C178.107 78.2374 177.716 77.6373 177.446 77.0324H177.264V88.6857H171.313ZM177.139 69.6321C177.139 70.927 177.316 72.0564 177.67 73.0204C178.023 73.9844 178.536 74.7358 179.206 75.2745C179.877 75.8038 180.692 76.0684 181.651 76.0684C182.62 76.0684 183.44 75.799 184.11 75.2603C184.781 74.7122 185.288 73.9561 185.633 72.992C185.987 72.0186 186.164 70.8986 186.164 69.6321C186.164 68.3751 185.992 67.2693 185.647 66.3148C185.302 65.3602 184.795 64.6136 184.124 64.0749C183.454 63.5361 182.629 63.2668 181.651 63.2668C180.683 63.2668 179.863 63.5267 179.192 64.0465C178.531 64.5663 178.023 65.3035 177.67 66.2581C177.316 67.2126 177.139 68.3373 177.139 69.6321Z" fill="#005580"/>
<path d="M202.339 88.6857C201.585 88.6857 200.877 88.6243 200.216 88.5014C199.564 88.388 199.023 88.2415 198.595 88.0619L199.936 83.5537C200.635 83.7711 201.264 83.8892 201.822 83.9081C202.391 83.927 202.879 83.7947 203.289 83.5112C203.708 83.2277 204.048 82.7457 204.309 82.0652L204.658 81.1437L196.96 58.7444H203.219L207.662 74.7358H207.886L212.37 58.7444H218.671L210.331 82.8732C209.93 84.0452 209.385 85.0659 208.696 85.9354C208.016 86.8144 207.155 87.4901 206.111 87.9627C205.068 88.4447 203.811 88.6857 202.339 88.6857Z" fill="#005580"/>
<path d="M236.441 80.5199H232.808L243.315 51.4859H246.891L257.397 80.5199H253.765L245.215 56.0792H244.991L236.441 80.5199ZM237.782 69.1785H252.424V72.2974H237.782V69.1785Z" fill="#049595"/>
<path d="M278.181 63.6212L275.219 64.4718C275.033 63.9709 274.758 63.4841 274.395 63.0116C274.041 62.5296 273.557 62.1326 272.942 61.8207C272.327 61.5089 271.54 61.3529 270.581 61.3529C269.268 61.3529 268.173 61.6601 267.298 62.2744C266.432 62.8793 265.998 63.6495 265.998 64.5852C265.998 65.4169 266.297 66.0738 266.893 66.5558C267.489 67.0378 268.42 67.4395 269.687 67.7608L272.872 68.5547C274.791 69.0273 276.221 69.7503 277.161 70.7238C278.102 71.6878 278.572 72.9306 278.572 74.4522C278.572 75.6998 278.218 76.815 277.511 77.798C276.812 78.7809 275.834 79.5559 274.577 80.1229C273.319 80.69 271.857 80.9735 270.19 80.9735C268.001 80.9735 266.189 80.4915 264.755 79.5275C263.321 78.5635 262.413 77.1553 262.031 75.3028L265.16 74.5089C265.458 75.6809 266.022 76.5599 266.851 77.1458C267.689 77.7318 268.783 78.0248 270.134 78.0248C271.671 78.0248 272.891 77.694 273.794 77.0324C274.707 76.3614 275.163 75.558 275.163 74.6224C275.163 73.8663 274.903 73.233 274.381 72.7227C273.859 72.2029 273.059 71.8154 271.978 71.5602L268.401 70.7096C266.436 70.237 264.993 69.5045 264.07 68.5122C263.158 67.5104 262.701 66.2581 262.701 64.7553C262.701 63.5267 263.041 62.4398 263.721 61.4947C264.41 60.5496 265.346 59.8076 266.529 59.2689C267.722 58.7302 269.072 58.4609 270.581 58.4609C272.705 58.4609 274.372 58.9334 275.583 59.8785C276.803 60.8236 277.669 62.0712 278.181 63.6212Z" fill="#049595"/>
<path d="M300.31 63.6212L297.348 64.4718C297.162 63.9709 296.887 63.4841 296.524 63.0116C296.17 62.5296 295.685 62.1326 295.071 61.8207C294.456 61.5089 293.669 61.3529 292.71 61.3529C291.396 61.3529 290.302 61.6601 289.426 62.2744C288.56 62.8793 288.127 63.6495 288.127 64.5852C288.127 65.4169 288.425 66.0738 289.021 66.5558C289.617 67.0378 290.549 67.4395 291.815 67.7608L295.001 68.5547C296.919 69.0273 298.349 69.7503 299.29 70.7238C300.231 71.6878 300.701 72.9306 300.701 74.4522C300.701 75.6998 300.347 76.815 299.639 77.798C298.941 78.7809 297.963 79.5559 296.705 80.1229C295.448 80.69 293.986 80.9735 292.318 80.9735C290.13 80.9735 288.318 80.4915 286.884 79.5275C285.449 78.5635 284.541 77.1553 284.159 75.3028L287.289 74.5089C287.587 75.6809 288.15 76.5599 288.979 77.1458C289.818 77.7318 290.912 78.0248 292.262 78.0248C293.799 78.0248 295.019 77.694 295.923 77.0324C296.836 76.3614 297.292 75.558 297.292 74.6224C297.292 73.8663 297.031 73.233 296.51 72.7227C295.988 72.2029 295.187 71.8154 294.107 71.5602L290.53 70.7096C288.565 70.237 287.121 69.5045 286.199 68.5122C285.286 67.5104 284.83 66.2581 284.83 64.7553C284.83 63.5267 285.17 62.4398 285.85 61.4947C286.539 60.5496 287.475 59.8076 288.658 59.2689C289.85 58.7302 291.201 58.4609 292.71 58.4609C294.833 58.4609 296.5 58.9334 297.711 59.8785C298.931 60.8236 299.797 62.0712 300.31 63.6212Z" fill="#049595"/>
<path d="M307.238 80.5199V58.7444H310.535V80.5199H307.238ZM308.914 55.1151C308.272 55.1151 307.717 54.893 307.252 54.4488C306.795 54.0046 306.567 53.4706 306.567 52.8469C306.567 52.2231 306.795 51.6891 307.252 51.2449C307.717 50.8007 308.272 50.5786 308.914 50.5786C309.557 50.5786 310.107 50.8007 310.563 51.2449C311.029 51.6891 311.261 52.2231 311.261 52.8469C311.261 53.4706 311.029 54.0046 310.563 54.4488C310.107 54.893 309.557 55.1151 308.914 55.1151Z" fill="#049595"/>
<path d="M333.348 63.6212L330.386 64.4718C330.2 63.9709 329.925 63.4841 329.562 63.0116C329.208 62.5296 328.724 62.1326 328.109 61.8207C327.494 61.5089 326.707 61.3529 325.748 61.3529C324.435 61.3529 323.34 61.6601 322.465 62.2744C321.598 62.8793 321.165 63.6495 321.165 64.5852C321.165 65.4169 321.463 66.0738 322.06 66.5558C322.656 67.0378 323.587 67.4395 324.854 67.7608L328.039 68.5547C329.958 69.0273 331.388 69.7503 332.328 70.7238C333.269 71.6878 333.739 72.9306 333.739 74.4522C333.739 75.6998 333.385 76.815 332.678 77.798C331.979 78.7809 331.001 79.5559 329.744 80.1229C328.486 80.69 327.024 80.9735 325.357 80.9735C323.168 80.9735 321.356 80.4915 319.922 79.5275C318.488 78.5635 317.579 77.1553 317.198 75.3028L320.327 74.5089C320.625 75.6809 321.189 76.5599 322.018 77.1458C322.856 77.7318 323.95 78.0248 325.301 78.0248C326.838 78.0248 328.058 77.694 328.961 77.0324C329.874 76.3614 330.33 75.558 330.33 74.6224C330.33 73.8663 330.07 73.233 329.548 72.7227C329.026 72.2029 328.225 71.8154 327.145 71.5602L323.568 70.7096C321.603 70.237 320.159 69.5045 319.237 68.5122C318.325 67.5104 317.868 66.2581 317.868 64.7553C317.868 63.5267 318.208 62.4398 318.888 61.4947C319.577 60.5496 320.513 59.8076 321.696 59.2689C322.888 58.7302 324.239 58.4609 325.748 58.4609C327.871 58.4609 329.539 58.9334 330.75 59.8785C331.97 60.8236 332.836 62.0712 333.348 63.6212Z" fill="#049595"/>
<path d="M349.609 58.7444V61.5797H338.488V58.7444H349.609ZM341.729 53.5273H345.026V74.2821C345.026 75.2272 345.161 75.9361 345.432 76.4086C345.711 76.8717 346.065 77.1836 346.493 77.3443C346.931 77.4955 347.392 77.5711 347.876 77.5711C348.24 77.5711 348.538 77.5522 348.771 77.5144C349.003 77.4672 349.19 77.4294 349.329 77.401L350 80.4065C349.776 80.4915 349.464 80.5766 349.064 80.6617C348.663 80.7562 348.156 80.8034 347.541 80.8034C346.61 80.8034 345.697 80.6002 344.803 80.1938C343.918 79.7874 343.182 79.1684 342.595 78.3367C342.018 77.505 341.729 76.4559 341.729 75.1894V53.5273Z" fill="#049595"/>
<defs>
<linearGradient id="paint0_linear_162_1505" x1="0" y1="48.5" x2="91.8146" y2="48.5" gradientUnits="userSpaceOnUse">
<stop stop-color="#004466"/>
<stop offset="1" stop-color="#00B3B3"/>
</linearGradient>
<linearGradient id="paint1_linear_162_1505" x1="0" y1="48.5" x2="91.8146" y2="48.5" gradientUnits="userSpaceOnUse">
<stop stop-color="#004466"/>
<stop offset="1" stop-color="#00B3B3"/>
</linearGradient>
<linearGradient id="paint2_linear_162_1505" x1="0" y1="48.5" x2="91.8146" y2="48.5" gradientUnits="userSpaceOnUse">
<stop stop-color="#004466"/>
<stop offset="1" stop-color="#00B3B3"/>
</linearGradient>
<linearGradient id="paint3_linear_162_1505" x1="0" y1="48.5" x2="91.8146" y2="48.5" gradientUnits="userSpaceOnUse">
<stop stop-color="#004466"/>
<stop offset="1" stop-color="#00B3B3"/>
</linearGradient>
<linearGradient id="paint4_linear_162_1505" x1="0" y1="48.5" x2="91.8146" y2="48.5" gradientUnits="userSpaceOnUse">
<stop stop-color="#00B3B3"/>
<stop offset="1" stop-color="#004466"/>
</linearGradient>
<linearGradient id="paint5_linear_162_1505" x1="0" y1="48.5" x2="91.8146" y2="48.5" gradientUnits="userSpaceOnUse">
<stop stop-color="#00B3B3"/>
<stop offset="1" stop-color="#004466"/>
</linearGradient>
<linearGradient id="paint6_linear_162_1505" x1="0" y1="48.5" x2="91.8146" y2="48.5" gradientUnits="userSpaceOnUse">
<stop stop-color="#00B2B2"/>
<stop offset="1" stop-color="#004466"/>
</linearGradient>
</defs>
</svg>
